<?xml version="1.0" encoding="UTF-8" standalone="no"?>
<svg
   inkscape:export-ydpi="192"
   inkscape:export-xdpi="192"
   inkscape:export-filename="/Users/victor/Documents/Apps/theSlate/app-dmg-background@2x.png"
   sodipodi:docname="app-dmg-background.svg"
   inkscape:version="1.4.2 (ebf0e940, 2025-05-08)"
   id="svg8"
   version="1.1"
   viewBox="0 0 158.74999 111.12501"
   height="420"
   width="600"
   xmlns:inkscape="http://www.inkscape.org/namespaces/inkscape"
   xmlns:sodipodi="http://sodipodi.sourceforge.net/DTD/sodipodi-0.dtd"
   xmlns:xlink="http://www.w3.org/1999/xlink"
   xmlns="http://www.w3.org/2000/svg"
   xmlns:svg="http://www.w3.org/2000/svg"
   xmlns:rdf="http://www.w3.org/1999/02/22-rdf-syntax-ns#"
   xmlns:cc="http://creativecommons.org/ns#"
   xmlns:dc="http://purl.org/dc/elements/1.1/">
  <defs
     id="defs2">
    <linearGradient
       id="linearGradient47"
       inkscape:collect="always">
      <stop
         style="stop-color:#753026;stop-opacity:1;"
         offset="0"
         id="stop46" />
      <stop
         style="stop-color:#fe654f;stop-opacity:0.5;"
         offset="1"
         id="stop47" />
    </linearGradient>
    <linearGradient
       inkscape:collect="always"
       id="linearGradient1069">
      <stop
         style="stop-color:#ff6400;stop-opacity:1"
         offset="0"
         id="stop1065" />
      <stop
         style="stop-color:#ffc800;stop-opacity:1"
         offset="1"
         id="stop1067" />
    </linearGradient>
    <linearGradient
       inkscape:collect="always"
       xlink:href="#linearGradient1069"
       id="linearGradient1027"
       x1="800"
       y1="1.2598426e-05"
       x2="1.5118126e-05"
       y2="560.00006"
       gradientUnits="userSpaceOnUse"
       gradientTransform="matrix(-0.26458332,0,0,-0.26458332,211.66666,296.99998)" />
    <linearGradient
       inkscape:collect="always"
       id="linearGradient9165">
      <stop
         style="stop-color:#ff641b;stop-opacity:1"
         offset="0"
         id="stop9161" />
      <stop
         style="stop-color:#f3c800;stop-opacity:1"
         offset="1"
         id="stop9163" />
    </linearGradient>
    <linearGradient
       gradientTransform="matrix(0.75539028,0,0,0.9957418,-22.462337,-10.221195)"
       gradientUnits="userSpaceOnUse"
       y2="134.72221"
       x2="28.222225"
       y1="289.94443"
       x1="28.222225"
       id="linearGradient71"
       xlink:href="#linearGradient9165"
       inkscape:collect="always" />
    <linearGradient
       inkscape:collect="always"
       xlink:href="#linearGradient9165"
       id="linearGradient71-9"
       x1="28.222225"
       y1="289.94443"
       x2="28.222225"
       y2="134.72221"
       gradientUnits="userSpaceOnUse"
       gradientTransform="matrix(0.75539028,0,0,0.61804661,20.175249,120.60822)" />
    <linearGradient
       inkscape:collect="always"
       xlink:href="#linearGradient47"
       id="linearGradient44"
       x1="127.00002"
       y1="229.9722"
       x2="24.694448"
       y2="229.9722"
       gradientUnits="userSpaceOnUse" />
    <linearGradient
       inkscape:collect="always"
       xlink:href="#linearGradient47"
       id="linearGradient49"
       x1="127.00002"
       y1="229.9722"
       x2="24.694448"
       y2="229.9722"
       gradientUnits="userSpaceOnUse" />
  </defs>
  <sodipodi:namedview
     borderlayer="true"
     inkscape:document-rotation="0"
     inkscape:window-maximized="0"
     inkscape:window-y="39"
     inkscape:window-x="0"
     inkscape:window-height="922"
     inkscape:window-width="1760"
     units="px"
     showgrid="true"
     inkscape:current-layer="layer1-8"
     inkscape:document-units="mm"
     inkscape:cy="202.52696"
     inkscape:cx="324.42169"
     inkscape:zoom="1.3208118"
     inkscape:pageshadow="2"
     inkscape:pageopacity="0.0"
     borderopacity="1.0"
     bordercolor="#666666"
     pagecolor="#ffffff"
     id="base"
     inkscape:showpageshadow="0"
     inkscape:pagecheckerboard="0"
     inkscape:deskcolor="#d1d1d1">
    <inkscape:grid
       dotted="false"
       opacity="0.1254902"
       color="#3f3fff"
       spacingy="1.3229167"
       spacingx="1.3229166"
       empspacing="4"
       id="grid10"
       type="xygrid"
       originx="0"
       originy="0"
       units="px" />
    <inkscape:grid
       empspacing="1"
       originx="2.6458327"
       originy="2.6458337"
       spacingx="5.2916665"
       spacingy="5.2916665"
       dotted="true"
       id="grid3703"
       type="xygrid"
       units="px" />
  </sodipodi:namedview>
  <metadata
     id="metadata5">
    <rdf:RDF>
      <cc:Work
         rdf:about="">
        <dc:format>image/svg+xml</dc:format>
        <dc:type
           rdf:resource="http://purl.org/dc/dcmitype/StillImage" />
      </cc:Work>
    </rdf:RDF>
  </metadata>
  <g
     transform="translate(0,-185.87498)"
     id="layer1"
     inkscape:groupmode="layer"
     inkscape:label="Layer 1">
    <g
       inkscape:label="Layer 1"
       id="layer1-8"
       transform="matrix(0.74999995,0,0,0.75000004,-1.2e-6,74.249986)">
      <rect
         style="fill:#ffffff;fill-opacity:1;stroke:none;stroke-width:1.35559;stroke-linecap:round;stroke-linejoin:round;stroke-miterlimit:4;stroke-dasharray:none;stroke-opacity:1"
         id="rect4627-6"
         width="211.66669"
         height="148.16666"
         x="5.9211923e-16"
         y="148.83331" />
      <rect
         style="fill:#ffffff;fill-opacity:1;stroke:#000000;stroke-width:3.52778;stroke-linecap:round;stroke-linejoin:round;stroke-miterlimit:4;stroke-dasharray:none;stroke-opacity:1"
         id="applications"
         width="37.041664"
         height="37.041664"
         x="148.16669"
         y="212.33331" />
      <path
         id="path40"
         style="baseline-shift:baseline;display:inline;overflow:visible;vector-effect:none;stroke-linecap:round;stroke-linejoin:round;enable-background:accumulate;stop-color:#000000;fill-opacity:1;fill:url(#linearGradient44)"
         d="M 116.41668 211.62776 A 0.70562558 0.70562558 0 0 0 116.14658 211.6815 A 0.70562558 0.70562558 0 0 0 115.71112 212.334 L 115.71112 222.21109 L 65.263895 222.21109 L 65.263895 239.49789 L 115.71112 239.49789 L 115.71112 249.37498 A 0.70562558 0.70562558 0 0 0 116.91621 249.87314 L 135.43567 231.35369 A 0.70562558 0.70562558 0 0 0 135.43567 230.3553 L 116.91621 211.83378 A 0.70562558 0.70562558 0 0 0 116.41668 211.62776 z " />
      <text
         xml:space="preserve"
         style="font-size:22.5618px;line-height:1.25;font-family:sans-serif;text-align:center;text-anchor:middle;stroke-width:0.352779"
         x="106.21892"
         y="192.35832"
         id="text1"><tspan
           sodipodi:role="line"
           id="tspan1"
           style="font-style:normal;font-variant:normal;font-weight:normal;font-stretch:normal;font-family:Giphurs;-inkscape-font-specification:Giphurs;stroke-width:0.352779"
           x="106.21892"
           y="192.35832">theGrid</tspan></text>
      <rect
         style="fill:#ffffff;fill-opacity:1;stroke:url(#linearGradient49);stroke-width:3.5277778;stroke-linecap:round;stroke-linejoin:round;stroke-miterlimit:4;stroke-dasharray:none;stroke-opacity:1"
         id="app"
         width="37.041664"
         height="37.041664"
         x="26.458336"
         y="212.33331" />
      <path
         style="font-size:22.5618px;line-height:1.25;font-family:Giphurs;-inkscape-font-specification:Giphurs;text-align:center;text-anchor:middle;stroke-width:0.352779"
         d="m 67.820893,181.03336 h -0.793188 v 1.63044 h 2.313466 v 6.38957 q 0,1.09063 0.47371,1.88382 0.484726,0.79319 1.32198,1.22284 0.848271,0.41862 1.949921,0.41862 0.462694,0 0.94742,-0.11016 0.495742,-0.0992 0.870303,-0.24237 l -0.495742,-1.79569 q -0.209314,0.15424 -0.594891,0.27542 -0.374562,0.11016 -0.72709,0.11016 -0.561841,0 -0.958435,-0.20931 -0.396595,-0.20932 -0.605908,-0.59489 -0.198297,-0.3966 -0.198297,-0.95844 v -6.38957 h 3.084621 v -1.76264 h -3.084621 v -3.08462 h -1.850773 v 1.52027 q 0,0.49575 -0.209314,0.88132 -0.198297,0.37457 -0.572858,0.5949 -0.374561,0.22033 -0.870304,0.22033 z m 16.844235,11.32496 h 1.982971 v -6.30144 q 0,-2.64396 -1.079618,-4.01001 -1.068601,-1.36604 -3.304951,-1.36604 -0.683023,0 -1.277914,0.1983 -0.594891,0.18728 -1.112667,0.52879 -0.506759,0.34151 -0.980469,0.81522 v -6.16924 h -1.894839 v 16.30442 h 1.982971 v -6.30144 q 0,-1.21181 0.297446,-2.005 0.297445,-0.80421 0.925386,-1.2008 0.627941,-0.40761 1.619426,-0.40761 0.991485,0 1.619426,0.40761 0.627941,0.39659 0.925386,1.2008 0.297446,0.79319 0.297446,2.005 z m 5.442153,-6.6099 v 1.76264 h 8.108147 l 0.771155,-1.76264 z m 8.108147,2.86429 q -0.407611,1.10165 -1.344013,1.65248 -0.925387,0.55082 -2.093136,0.55082 -0.793188,0 -1.443162,-0.30846 -0.638957,-0.30846 -1.10165,-0.8703 -0.462694,-0.57286 -0.716073,-1.333 -0.242363,-0.77116 -0.242363,-1.67451 0,-0.91437 0.242363,-1.67451 0.253379,-0.76014 0.716073,-1.32198 0.462693,-0.57286 1.10165,-0.88132 0.649974,-0.30846 1.443162,-0.30846 0.793188,0 1.432145,0.30846 0.649974,0.30846 1.112667,0.88132 0.462693,0.56184 0.705057,1.32198 0.253379,0.76014 0.253379,1.67451 0,0.23135 -0.02203,0.45168 -0.01102,0.20931 -0.04407,0.42964 h 1.993992 q 0.022,-0.22033 0.033,-0.44066 0.022,-0.22033 0.022,-0.44066 0,-1.71857 -0.727091,-3.06259 -0.72709,-1.34401 -1.971955,-2.11517 -1.233848,-0.77115 -2.787175,-0.77115 -1.542311,0 -2.787176,0.77115 -1.244865,0.77116 -1.971954,2.11517 -0.727089,1.34402 -0.727089,3.06259 0,1.71857 0.727089,3.06259 0.727089,1.34401 1.971954,2.11517 1.244865,0.77115 2.787176,0.77115 1.641459,0 3.040555,-0.76014 1.399096,-0.77115 2.082119,-2.23635 z m 16.954402,-7.59037 1.77365,-1.0025 q -0.96945,-1.91687 -2.75412,-3.05157 -1.78468,-1.1347 -3.99899,-1.1347 -1.63045,0 -3.04056,0.62794 -1.39909,0.61692 -2.45668,1.75162 -1.04657,1.12368 -1.64146,2.65498 -0.58387,1.52028 -0.58387,3.338 0,1.81772 0.58387,3.34902 0.59489,1.52027 1.64146,2.65497 1.05759,1.12369 2.45668,1.75163 1.41011,0.61692 3.04056,0.61692 1.11266,0 2.11517,-0.28643 1.01351,-0.29744 1.88382,-0.84827 0.8703,-0.55082 1.56434,-1.32198 0.70506,-0.77115 1.18978,-1.72959 l -1.77365,-1.0025 q -0.45168,1.02453 -1.2008,1.77366 -0.74912,0.74912 -1.70756,1.15673 -0.95844,0.40761 -2.0711,0.40761 -1.2008,0 -2.22534,-0.47371 -1.02453,-0.47371 -1.79569,-1.34401 -0.76014,-0.87031 -1.18978,-2.06009 -0.41863,-1.2008 -0.41863,-2.64396 0,-1.44316 0.41863,-2.63295 0.42964,-1.20079 1.18978,-2.0711 0.77116,-0.8703 1.79569,-1.34401 1.02454,-0.47371 2.22534,-0.47371 1.11266,0 2.0711,0.40761 0.95844,0.40761 1.70756,1.15673 0.74912,0.73811 1.2008,1.77366 z m -4.97946,3.18377 v 1.85077 h 4.74811 v 3.51427 l 0.0881,0.28643 v 2.50074 h 2.00501 v -8.15221 z m 16.57983,-1.2008 0.5288,-1.97195 q -0.41863,-0.17627 -0.89234,-0.2644 -0.46269,-0.0881 -1.02453,-0.0881 -0.68303,0 -1.28894,0.1983 -0.6059,0.18728 -1.1347,0.52879 -0.51777,0.34151 -0.99148,0.81522 v -1.32198 h -1.85077 v 11.45716 h 1.98297 v -6.30144 q 0,-1.21181 0.29744,-2.005 0.29745,-0.80421 0.92539,-1.2008 0.62794,-0.40761 1.61943,-0.40761 0.58387,0 1.02453,0.14321 0.45168,0.1322 0.8042,0.41863 z m 2.62193,9.35301 h 1.98298 v -11.45716 h -1.98298 z m -0.41862,-15.11464 q 0,0.59489 0.40761,1.0025 0.40761,0.40761 1.0025,0.40761 0.59489,0 1.0025,-0.40761 0.40761,-0.40761 0.40761,-1.0025 0,-0.59489 -0.40761,-1.0025 -0.40761,-0.40761 -1.0025,-0.40761 -0.59489,0 -1.0025,0.40761 -0.40761,0.40761 -0.40761,1.0025 z m 13.59436,9.38606 q 0,1.2669 -0.40761,2.21432 -0.40761,0.9364 -1.14571,1.45418 -0.73811,0.51777 -1.72959,0.51777 -0.99149,0 -1.7296,-0.51777 -0.7381,-0.51778 -1.14571,-1.45418 -0.40761,-0.94742 -0.40761,-2.21432 0,-1.2669 0.40761,-2.2033 0.40761,-0.94742 1.14571,-1.4652 0.73811,-0.51777 1.7296,-0.51777 0.99148,0 1.72959,0.51777 0.7381,0.51778 1.14571,1.4652 0.40761,0.9364 0.40761,2.2033 z m 1.85078,3.87781 V 176.0539 h -1.98297 v 6.16924 q -0.4627,-0.47371 -0.92539,-0.81522 -0.46269,-0.34151 -1.0025,-0.52879 -0.52879,-0.1983 -1.22283,-0.1983 -1.54231,0 -2.7321,0.77115 -1.18978,0.77116 -1.86179,2.11517 -0.672,1.34402 -0.672,3.06259 0,1.71857 0.672,3.06259 0.67201,1.34401 1.86179,2.11517 1.18979,0.77115 2.7321,0.77115 0.69404,0 1.25588,-0.19829 0.57286,-0.18729 1.0686,-0.5288 0.49574,-0.35253 0.95843,-0.81522 0,0.49574 0.0881,0.91437 0.0881,0.40761 0.0881,0.40761 h 1.89484 q 0,0 -0.0551,-0.22033 -0.0551,-0.23134 -0.11016,-0.64997 -0.0551,-0.41863 -0.0551,-0.98047 z"
         id="text2"
         aria-label="theGrid" />
    </g>
  </g>
</svg>
